# xmcd
# 
# Track frame offsets:
#     150
#     9465
#     26145
#     45447
#     64405
#     86687
#     108135
#     122025
#     139200
#     142917
#     163585
#     179200
#     189690
#     204620
#     218997
# 
# Disc length: 3212
# 
# Revision: 4
# Processed by: cddbd v1.5.2PL0 Copyright (c) Steve Scherf et al.
# Submitted via: fre:ac v1.0.31
# 
DISCID=df0c8a0f
DTITLE=大貫妙子 - History 1978～1984 CD2
DYEAR=1999
DGENRE=JPop
TTITLE0=カイエ
TTITLE1=グランプリ
TTITLE2=CARNAVAL
TTITLE3=SIGNE(記号)
TTITLE4=幻惑
TTITLE5=夏に恋する女たち
TTITLE6=輪舞
TTITLE7=Amour levant - 若き日の望楼 -
TTITLE8=SONY HANDY CAM
TTITLE9=雨の夜明け
TTITLE10=最後の日付
TTITLE11=メトロポリタン美術館
TTITLE12=光のカーニバル
TTITLE13=黒のクレール(REPRISE) Instrumental
TTITLE14=ひまわり
EXTD=
EXTT0=
EXTT1=
EXTT2=
EXTT3=
EXTT4=
EXTT5=
EXTT6=
EXTT7=
EXTT8=
EXTT9=
EXTT10=
EXTT11=
EXTT12=
EXTT13=
EXTT14=
PLAYORDER=
